<mxfile host="app.diagrams.net" modified="2023-09-28T14:33:15.647Z" agent="Mozilla/5.0 (X11; Linux x86_64) AppleWebKit/537.36 (KHTML, like Gecko) Chrome/117.0.0.0 Safari/537.36" version="22.0.0" etag="3IA_0KZkRhL7bn0oxJyU" type="github">
  <diagram name="Page-1" id="-hRS9cbg7JtvBb1iUkHX">
    <mxGraphModel>
      <root>
        <mxCell id="0" />
        <mxCell id="1" parent="0" />
      </root>
    </mxGraphModel>
  </diagram>
</mxfile>
